HIERARCHY
ROOT SpineBase
{
  OFFSET 0.000000 0.000000 0.000000
  CHANNELS 6 Xposition Yposition Zposition Zrotation Xrotation Yrotation
  JOINT SpineMid
  {
    OFFSET 0.000000 28.752877 0.000000
    CHANNELS 3 Zrotation Xrotation Yrotation
    JOINT SpineShoulder
    {
      OFFSET -0.041553 21.359722 -0.685418
      CHANNELS 3 Zrotation Xrotation Yrotation
      JOINT Neck
      {
        OFFSET -0.036182 7.066343 -0.524347
        CHANNELS 3 Zrotation Xrotation Yrotation
        JOINT Head
        {
          OFFSET -1.930995 12.311294 -0.072484
          CHANNELS 3 Zrotation Xrotation Yrotation
          End Site
          {
            OFFSET 0 0 0
          }
        }
      }
      JOINT ShoulderLeft
      {
        OFFSET -15.994513 -2.859271 5.372175
        CHANNELS 3 Zrotation Xrotation Yrotation
        JOINT ElbowLeft
        {
          OFFSET -3.706372 -24.860125 3.179032
          CHANNELS 3 Zrotation Xrotation Yrotation
          JOINT WristLeft
          {
            OFFSET -3.659965 -20.896461 -3.416175
            CHANNELS 3 Zrotation Xrotation Yrotation
            JOINT HandLeft
            {
              OFFSET 0.185202 -6.586334 -2.007263
              CHANNELS 3 Zrotation Xrotation Yrotation
              JOINT HandTipLeft
              {
                OFFSET -1.151663 -6.489746 -1.114868
                CHANNELS 3 Zrotation Xrotation Yrotation
                End Site
                {
                  OFFSET 0 0 0
                }
              }
              JOINT ThumbLeft
              {
                OFFSET 3.871050 0.883295 -2.740619
                CHANNELS 3 Zrotation Xrotation Yrotation
                End Site
                {
                  OFFSET 0 0 0
                }
              }
            }
          }
        }
      }
      JOINT ShoulderRight
      {
        OFFSET 14.656544 -2.837327 -6.195190
        CHANNELS 3 Zrotation Xrotation Yrotation
        JOINT ElbowRight
        {
          OFFSET 5.515772 -24.914743 -3.192403
          CHANNELS 3 Zrotation Xrotation Yrotation
          JOINT WristRight
          {
            OFFSET -0.711271 -22.259580 -3.691524
            CHANNELS 3 Zrotation Xrotation Yrotation
            JOINT HandRight
            {
              OFFSET -2.509736 -6.445599 -1.312806
              CHANNELS 3 Zrotation Xrotation Yrotation
              JOINT HandTipRight
              {
                OFFSET -1.016194 -5.846676 -1.027776
                CHANNELS 3 Zrotation Xrotation Yrotation
                End Site
                {
                  OFFSET 0 0 0
                }
              }
              JOINT ThumbRight
              {
                OFFSET -2.946421 -0.809068 -1.919108
                CHANNELS 3 Zrotation Xrotation Yrotation
                End Site
                {
                  OFFSET 0 0 0
                }
              }
            }
          }
        }
      }
    }
  }
  JOINT HipLeft
  {
    OFFSET -5.858608 0.325066 -1.440128
    CHANNELS 3 Zrotation Xrotation Yrotation
    JOINT KneeLeft
    {
      OFFSET -6.934418 -27.552128 6.331270
      CHANNELS 3 Zrotation Xrotation Yrotation
      JOINT AnkleLeft
      {
        OFFSET -2.091769 -39.924740 9.342040
        CHANNELS 3 Zrotation Xrotation Yrotation
        JOINT FootLeft
        {
          OFFSET -3.437542 -5.040414 -10.160550
          CHANNELS 3 Zrotation Xrotation Yrotation
          End Site
          {
            OFFSET 0 0 0
          }
        }
      }
    }
  }
  JOINT HipRight
  {
    OFFSET 5.502972 0.924527 -5.126048
    CHANNELS 3 Zrotation Xrotation Yrotation
    JOINT KneeRight
    {
      OFFSET 4.993372 -25.461859 1.583185
      CHANNELS 3 Zrotation Xrotation Yrotation
      JOINT AnkleRight
      {
        OFFSET 5.065448 -41.877746 10.041424
        CHANNELS 3 Zrotation Xrotation Yrotation
        JOINT FootRight
        {
          OFFSET -4.403357 -4.175287 -10.064883
          CHANNELS 3 Zrotation Xrotation Yrotation
          End Site
          {
            OFFSET 0 0 0
          }
        }
      }
    }
  }
}
MOTION
Frames: 9
Frame Time: 0.033333
19.233514 101.314216 380.602351 -3.555189 -27.534824 -3.848340 -0.764979 0.589583 2.994729 -1.371835 -1.192877 -0.093734 -13.310340 13.602939 3.674220 0.000000 0.000000 0.000000 -54.235285 17.046402 16.784392 27.831517 8.292155 11.293018 -6.161769 -11.067165 3.248769 3.664543 2.075347 -4.217029 0.000000 0.000000 0.000000 0.000000 0.000000 0.000000 20.720028 0.099945 -12.915023 -1.856461 10.794478 4.733383 9.492591 3.536791 -0.325487 -23.856613 6.583346 3.424210 0.000000 0.000000 0.000000 0.000000 0.000000 0.000000 -11.827883 44.671642 3.933273 12.531898 -16.495295 9.022981 7.193998 -2.704104 -16.083783 0.000000 0.000000 0.000000 11.359192 54.638687 1.980871 -25.654894 -19.644532 -17.560385 20.650136 -10.759146 1.468950 0.000000 0.000000 0.000000
20.963808 101.555849 384.226138 -5.429290 -34.820470 -3.430557 -0.807903 0.607317 1.754580 -1.077038 -0.840666 -0.150692 -18.533190 17.100791 7.240186 0.000000 0.000000 0.000000 -60.653747 23.531651 26.249341 27.630856 7.348824 13.386679 -5.556403 -11.465429 3.815706 4.684443 3.164279 -5.204956 0.000000 0.000000 0.000000 0.000000 0.000000 0.000000 24.731182 6.164243 -16.603987 -2.687425 10.507973 4.753904 10.073447 2.304917 0.216065 -23.338070 2.642171 4.085551 0.000000 0.000000 0.000000 0.000000 0.000000 0.000000 -13.703262 58.567427 5.028426 13.754847 -22.774859 11.544778 8.826203 -6.856655 -15.172748 0.000000 0.000000 0.000000 15.720982 67.111260 -1.999096 -26.270589 -22.213864 -20.585518 27.619988 -20.540463 -1.074480 0.000000 0.000000 0.000000
22.780174 101.815434 388.168600 -8.673967 -42.542706 -2.700866 -0.445472 0.929768 -0.774839 -0.612423 -0.228084 -0.287571 -21.157337 22.007484 10.940754 0.000000 0.000000 0.000000 -69.115180 27.939458 37.356242 31.229561 8.052959 15.144145 -7.018220 -9.141779 5.481063 4.381592 2.166235 -6.576140 0.000000 0.000000 0.000000 0.000000 0.000000 0.000000 30.958445 11.666001 -22.031788 -4.415773 10.500798 4.758063 12.639995 1.021802 -0.210357 -26.126540 4.306499 4.478793 0.000000 0.000000 0.000000 0.000000 0.000000 0.000000 -12.563782 72.533880 4.395225 13.672941 -26.928053 13.016806 11.634438 -13.373932 -14.144708 0.000000 0.000000 0.000000 37.353043 77.834970 -22.081805 -28.164259 -24.042916 -24.147214 32.650190 -24.609601 -2.426928 0.000000 0.000000 0.000000
24.252416 101.793716 391.546216 -12.749434 -49.256256 -4.723297 -0.010743 1.053124 -1.453089 -0.057379 0.520627 -0.495678 -22.207750 27.417137 14.209711 0.000000 0.000000 0.000000 -78.397892 33.251834 50.437576 31.760030 6.408368 17.078147 -1.949396 -5.353669 7.136170 -0.292409 2.627983 -7.253443 0.000000 0.000000 0.000000 0.000000 0.000000 0.000000 38.593080 17.111820 -28.641245 -5.224682 8.405012 4.275879 15.402461 1.095573 -1.782047 -25.262697 5.889635 3.463647 0.000000 0.000000 0.000000 0.000000 0.000000 0.000000 -23.518480 83.243506 16.737860 13.278704 -31.461830 13.547992 14.858351 -17.438716 -12.827214 0.000000 0.000000 0.000000 92.379055 83.720873 -75.164695 -29.907736 -24.829705 -27.375514 37.613751 -26.384989 -5.050582 0.000000 0.000000 0.000000
25.417636 101.430116 393.839764 -18.067952 -54.607400 -8.454694 0.268417 0.803432 -1.493872 0.553070 1.127748 -0.807289 -20.760891 33.742910 16.137009 0.000000 0.000000 0.000000 -86.742222 37.702708 63.497617 32.026974 5.212314 18.243274 3.168800 -3.623089 8.023170 -1.316502 6.481036 -7.580252 0.000000 0.000000 0.000000 0.000000 0.000000 0.000000 46.646834 19.893539 -35.971381 -6.023319 8.468197 3.471520 15.195211 1.056498 -2.440471 -17.911021 4.506976 1.580662 0.000000 0.000000 0.000000 0.000000 0.000000 0.000000 -130.727698 86.934370 126.075562 12.217831 -36.068758 13.107547 17.654987 -21.156885 -8.363705 0.000000 0.000000 0.000000 146.427760 79.434018 -126.197256 -33.066674 -24.893764 -30.852236 41.480777 -29.018820 0.468135 0.000000 0.000000 0.000000
27.497779 100.232631 394.620232 -22.049167 -57.941004 -9.068685 0.224481 0.552835 -3.876341 0.930056 1.572439 -1.030318 -19.664666 37.377820 17.015433 0.000000 0.000000 0.000000 -93.762600 44.443836 75.941903 31.400217 3.763726 17.982803 6.972012 -0.469840 8.661807 -0.471112 8.572697 -8.387194 0.000000 0.000000 0.000000 0.000000 0.000000 0.000000 51.402675 20.871352 -40.706280 -5.742642 11.656027 1.708167 15.359529 -2.838511 0.229391 -13.133882 3.797356 0.313211 0.000000 0.000000 0.000000 0.000000 0.000000 0.000000 -176.379195 82.868866 172.909506 11.558536 -40.635864 12.391233 18.854247 -22.033170 0.699947 0.000000 0.000000 0.000000 149.025000 74.185713 -126.750895 -36.633097 -24.102769 -33.949238 44.658986 -27.404799 -0.595061 0.000000 0.000000 0.000000
30.280791 97.924912 395.402039 -27.033977 -61.290865 -9.368510 0.765066 0.449683 -7.849924 1.518501 2.156018 -1.350491 -17.047410 43.510025 16.927804 0.000000 0.000000 0.000000 -108.385768 53.021226 96.374533 27.416330 -0.917971 16.573360 13.196314 -1.326742 8.782405 -3.060225 11.988963 -8.820813 0.000000 0.000000 0.000000 0.000000 0.000000 0.000000 57.684868 24.099143 -46.655863 -4.723658 12.028578 -0.494305 14.895717 -12.057497 9.549759 -9.099187 12.966386 -7.623134 0.000000 0.000000 0.000000 0.000000 0.000000 0.000000 165.848059 78.289684 -167.326964 10.484285 -44.915574 11.174057 12.748317 -14.621420 20.421053 0.000000 0.000000 0.000000 143.697733 69.786249 -119.738039 -39.203420 -21.990135 -35.313472 49.450275 -29.644014 7.710189 0.000000 0.000000 0.000000
34.928771 93.202052 393.031405 -31.191408 -61.914953 -16.478001 0.984122 0.941179 -3.678455 1.016673 1.683221 -1.215045 -10.196642 49.186200 13.778114 0.000000 0.000000 0.000000 -125.898357 61.517719 120.992893 23.313491 -5.717905 14.054939 23.782750 -7.431298 9.546112 -11.516428 20.649751 -8.725045 0.000000 0.000000 0.000000 0.000000 0.000000 0.000000 58.449343 23.054468 -47.127105 -2.696666 19.084935 -3.481302 14.928791 -28.180598 27.666207 5.544443 22.619527 -25.493278 0.000000 0.000000 0.000000 0.000000 0.000000 0.000000 -174.232975 77.932289 174.059364 7.199428 -49.143410 7.865025 6.850833 -2.235327 30.643126 0.000000 0.000000 0.000000 152.975518 69.413963 -127.270648 -43.409618 -20.384155 -37.892557 55.831664 -33.016595 11.300267 0.000000 0.000000 0.000000
37.927197 87.694050 391.122363 -30.721204 -60.845725 -19.272676 1.232902 1.472526 -0.293568 0.598142 1.492997 -1.001539 -6.720804 50.151236 11.431961 0.000000 0.000000 0.000000 -150.395948 71.766743 151.701055 15.449060 -9.332225 8.835679 38.294078 -14.138473 11.904045 -22.497643 29.020556 -6.875865 0.000000 0.000000 0.000000 0.000000 0.000000 0.000000 60.801021 24.901538 -47.448641 -1.928346 16.350116 -3.700741 16.015952 -33.102163 34.078890 11.724637 23.598678 -32.686949 0.000000 0.000000 0.000000 0.000000 0.000000 0.000000 -144.279548 79.812320 143.419499 8.835968 -49.738759 7.851604 -0.007978 4.269528 41.405065 0.000000 0.000000 0.000000 156.095312 72.295089 -130.888912 -45.256663 -18.654198 -38.233099 56.602471 -30.774094 8.767097 0.000000 0.000000 0.000000
